{
  "source": "C:\\Users\\Peter\\Desktop\\stuff\\MIUN\\quantitative_research\\video_compression\\videos\\BVI-HD\\BVI-HD_CDVL_videos\\ORIG\\TreeTrunk_1920x1080_50fps.mp4",
  "output": "C:\\Users\\Peter\\Desktop\\stuff\\MIUN\\quantitative_research\\video_compression\\compressed_videos\\BVI-HD\\vp9\\2.5\\TreeTrunk_1920x1080_50fps_vp9.webm",
  "codec": "vp9",
  "ok": "Input #0, mov,mp4,m4a,3gp,3g2,mj2, from 'C:\\Users\\Peter\\Desktop\\stuff\\MIUN\\quantitative_research\\video_compression\\videos\\BVI-HD\\BVI-HD_CDVL_videos\\ORIG\\TreeTrunk_1920x1080_50fps.mp4':\n  Metadata:\n    major_brand     : isom\n    minor_version   : 512\n    compatible_brands: isomiso2avc1mp41\n    encoder         : Lavf54.28.101\n  Duration: 00:00:05.00, start: 0.000000, bitrate: 622415 kb/s\n  Stream #0:0[0x1](und): Video: h264 (High 4:4:4 Predictive) (avc1 / 0x31637661), yuv420p(progressive), 1920x1080, 622410 kb/s, 50 fps, 50 tbr, 50 tbn (default)\n    Metadata:\n      handler_name    : VideoHandler\n      vendor_id       : [0][0][0][0]\n[out#0/webm @ 0000021a3c40f040] Codec AVOption b:a (set bitrate (in bits/s)) has not been used for any stream. The most likely reason is either wrong type (e.g. a video option with no video streams) or that it is a private option of some decoder which was not actually used for any stream.\nStream mapping:\n  Stream #0:0 -> #0:0 (h264 (native) -> vp9 (libvpx-vp9))\nPress [q] to stop, [?] for help\n[libvpx-vp9 @ 0000021a3c210980] v1.15.2-100-g40561f514\nOutput #0, webm, to 'C:\\Users\\Peter\\Desktop\\stuff\\MIUN\\quantitative_research\\video_compression\\compressed_videos\\BVI-HD\\vp9\\2.5\\TreeTrunk_1920x1080_50fps_vp9.webm':\n  Metadata:\n    major_brand     : isom\n    minor_version   : 512\n    compatible_brands: isomiso2avc1mp41\n    encoder         : Lavf62.3.100\n  Stream #0:0(und): Video: vp9, yuv420p(tv, progressive), 1920x1080, q=2-31, 2500 kb/s, 50 fps, 1k tbn (default)\n    Metadata:\n      encoder         : Lavc62.11.100 libvpx-vp9\n      handler_name    : VideoHandler\n      vendor_id       : [0][0][0][0]\n    Side data:\n      cpb: bitrate max/min/avg: 0/0/0 buffer size: 2500000 vbv_delay: N/A\nframe=    0 fps=0.0 q=0.0 size=       0KiB time=N/A bitrate=N/A speed=N/A elapsed=0:00:00.52    \nframe=    0 fps=0.0 q=0.0 size=       0KiB time=N/A bitrate=N/A speed=N/A elapsed=0:00:01.11    \nframe=    6 fps=3.5 q=44.0 size=       1KiB time=00:00:00.10 bitrate=  50.7kbits/s speed=0.0586x elapsed=0:00:01.70    \nframe=   10 fps=4.4 q=41.0 size=       1KiB time=00:00:00.20 bitrate=  25.4kbits/s speed=0.0875x elapsed=0:00:02.28    \nframe=   13 fps=4.6 q=40.0 size=       1KiB time=00:00:00.26 bitrate=  19.5kbits/s speed=0.092x elapsed=0:00:02.82    \nframe=   15 fps=4.4 q=37.0 size=       1KiB time=00:00:00.30 bitrate=  16.9kbits/s speed=0.0875x elapsed=0:00:03.42    \nframe=   17 fps=4.3 q=37.0 size=       1KiB time=00:00:00.34 bitrate=  14.9kbits/s speed=0.0856x elapsed=0:00:03.97    \nframe=   19 fps=4.2 q=37.0 size=       1KiB time=00:00:00.38 bitrate=  13.3kbits/s speed=0.0843x elapsed=0:00:04.50    \nframe=   21 fps=4.2 q=37.0 size=       1KiB time=00:00:00.42 bitrate=  12.1kbits/s speed=0.0836x elapsed=0:00:05.02    \nframe=   22 fps=4.0 q=37.0 size=       1KiB time=00:00:00.44 bitrate=  11.5kbits/s speed=0.0792x elapsed=0:00:05.55    \nframe=   22 fps=3.6 q=37.0 size=       1KiB time=00:00:00.44 bitrate=  11.5kbits/s speed=0.0726x elapsed=0:00:06.06    \nframe=   25 fps=3.8 q=35.0 size=       1KiB time=00:00:00.50 bitrate=  10.1kbits/s speed=0.0758x elapsed=0:00:06.59    \nframe=   28 fps=3.9 q=35.0 size=       1KiB time=00:00:00.56 bitrate=   9.1kbits/s speed=0.0784x elapsed=0:00:07.13    \nframe=   32 fps=4.1 q=36.0 size=       1KiB time=00:00:00.64 bitrate=   7.9kbits/s speed=0.0829x elapsed=0:00:07.72    \nframe=   34 fps=4.1 q=28.0 size=       1KiB time=00:00:00.68 bitrate=   7.5kbits/s speed=0.0813x elapsed=0:00:08.36    \nframe=   37 fps=4.2 q=33.0 size=       1KiB time=00:00:00.74 bitrate=   6.9kbits/s speed=0.0833x elapsed=0:00:08.88    \nframe=   40 fps=4.2 q=34.0 size=       1KiB time=00:00:00.80 bitrate=   6.3kbits/s speed=0.0849x elapsed=0:00:09.42    \nframe=   42 fps=4.2 q=34.0 size=       1KiB time=00:00:00.84 bitrate=   6.0kbits/s speed=0.0842x elapsed=0:00:09.97    \nframe=   44 fps=4.1 q=35.0 size=       1KiB time=00:00:00.88 bitrate=   5.8kbits/s speed=0.0824x elapsed=0:00:10.67    \nframe=   47 fps=4.2 q=33.0 size=       1KiB time=00:00:00.94 bitrate=   5.4kbits/s speed=0.0831x elapsed=0:00:11.31    \nframe=   50 fps=4.2 q=33.0 size=       1KiB time=00:00:01.00 bitrate=   5.1kbits/s speed=0.084x elapsed=0:00:11.90    \nframe=   53 fps=4.3 q=33.0 size=       1KiB time=00:00:01.06 bitrate=   4.8kbits/s speed=0.085x elapsed=0:00:12.46    \nframe=   55 fps=4.2 q=34.0 size=       1KiB time=00:00:01.10 bitrate=   4.6kbits/s speed=0.0837x elapsed=0:00:13.13    \nframe=   58 fps=4.2 q=32.0 size=       1KiB time=00:00:01.16 bitrate=   4.4kbits/s speed=0.0837x elapsed=0:00:13.85    \nframe=   61 fps=4.2 q=33.0 size=       1KiB time=00:00:01.22 bitrate=   4.2kbits/s speed=0.0847x elapsed=0:00:14.39    \nframe=   64 fps=4.3 q=33.0 size=       1KiB time=00:00:01.28 bitrate=   4.0kbits/s speed=0.0853x elapsed=0:00:14.99    \nframe=   66 fps=4.2 q=34.0 size=       1KiB time=00:00:01.32 bitrate=   3.8kbits/s speed=0.0843x elapsed=0:00:15.65    \nframe=   69 fps=4.2 q=32.0 size=       1KiB time=00:00:01.38 bitrate=   3.7kbits/s speed=0.0846x elapsed=0:00:16.31    \nframe=   72 fps=4.3 q=32.0 size=       1KiB time=00:00:01.44 bitrate=   3.5kbits/s speed=0.0853x elapsed=0:00:16.88    \nframe=   75 fps=4.3 q=33.0 size=       1KiB time=00:00:01.50 bitrate=   3.4kbits/s speed=0.0862x elapsed=0:00:17.40    \nframe=   77 fps=4.3 q=33.0 size=       1KiB time=00:00:01.54 bitrate=   3.3kbits/s speed=0.0852x elapsed=0:00:18.07    \nframe=   80 fps=4.3 q=32.0 size=       1KiB time=00:00:01.60 bitrate=   3.2kbits/s speed=0.0854x elapsed=0:00:18.74    \nframe=   84 fps=4.4 q=33.0 size=       1KiB time=00:00:01.68 bitrate=   3.0kbits/s speed=0.0871x elapsed=0:00:19.28    \nframe=   87 fps=4.4 q=33.0 size=       1KiB time=00:00:01.74 bitrate=   2.9kbits/s speed=0.0874x elapsed=0:00:19.91    \nframe=   88 fps=4.3 q=33.0 size=       1KiB time=00:00:01.76 bitrate=   2.9kbits/s speed=0.086x elapsed=0:00:20.47    \nframe=   91 fps=4.3 q=31.0 size=       1KiB time=00:00:01.82 bitrate=   2.8kbits/s speed=0.0858x elapsed=0:00:21.22    \nframe=   94 fps=4.3 q=32.0 size=       1KiB time=00:00:01.88 bitrate=   2.7kbits/s speed=0.0861x elapsed=0:00:21.82    \nframe=   96 fps=4.3 q=32.0 size=       1KiB time=00:00:01.92 bitrate=   2.6kbits/s speed=0.0856x elapsed=0:00:22.43    \nframe=   98 fps=4.2 q=33.0 size=       1KiB time=00:00:01.96 bitrate=   2.6kbits/s speed=0.0847x elapsed=0:00:23.14    \nframe=  100 fps=4.2 q=25.0 size=       1KiB time=00:00:02.00 bitrate=   2.5kbits/s speed=0.0844x elapsed=0:00:23.69    \nframe=  103 fps=4.2 q=31.0 size=       1KiB time=00:00:02.06 bitrate=   2.5kbits/s speed=0.0849x elapsed=0:00:24.25    \nframe=  106 fps=4.3 q=32.0 size=       1KiB time=00:00:02.10 bitrate=   2.4kbits/s speed=0.0843x elapsed=0:00:24.91    \nframe=  108 fps=4.2 q=33.0 size=       1KiB time=00:00:02.16 bitrate=   2.3kbits/s speed=0.0842x elapsed=0:00:25.65    \nframe=  110 fps=4.2 q=33.0 size=       1KiB time=00:00:02.20 bitrate=   2.3kbits/s speed=0.084x elapsed=0:00:26.18    \nframe=  113 fps=4.2 q=32.0 size=       1KiB time=00:00:02.26 bitrate=   2.2kbits/s speed=0.0844x elapsed=0:00:26.78    \nframe=  116 fps=4.2 q=32.0 size=       1KiB time=00:00:02.30 bitrate=   2.2kbits/s speed=0.0838x elapsed=0:00:27.45    \nframe=  119 fps=4.2 q=33.0 size=       1KiB time=00:00:02.38 bitrate=   2.1kbits/s speed=0.0848x elapsed=0:00:28.06    \nframe=  122 fps=4.3 q=32.0 size=       1KiB time=00:00:02.44 bitrate=   2.1kbits/s speed=0.0852x elapsed=0:00:28.65    \nframe=  125 fps=4.3 q=32.0 size=       1KiB time=00:00:02.48 bitrate=   2.0kbits/s speed=0.085x elapsed=0:00:29.18    \nframe=  127 fps=4.3 q=33.0 size=       1KiB time=00:00:02.54 bitrate=   2.0kbits/s speed=0.085x elapsed=0:00:29.86    \nframe=  128 fps=4.2 q=33.0 size=       1KiB time=00:00:02.56 bitrate=   2.0kbits/s speed=0.084x elapsed=0:00:30.46    \nframe=  131 fps=4.2 q=31.0 size=    1792KiB time=00:00:02.62 bitrate=5603.1kbits/s speed=0.0846x elapsed=0:00:30.98    \nframe=  134 fps=4.2 q=32.0 size=    1792KiB time=00:00:02.68 bitrate=5477.6kbits/s speed=0.0847x elapsed=0:00:31.64    \nframe=  136 fps=4.2 q=33.0 size=    1792KiB time=00:00:02.72 bitrate=5397.1kbits/s speed=0.0843x elapsed=0:00:32.25    \nframe=  139 fps=4.2 q=33.0 size=    1792KiB time=00:00:02.78 bitrate=5280.6kbits/s speed=0.0847x elapsed=0:00:32.81    \nframe=  141 fps=4.2 q=33.0 size=    1792KiB time=00:00:02.82 bitrate=5205.7kbits/s speed=0.0844x elapsed=0:00:33.40    \nframe=  143 fps=4.2 q=31.0 size=    1792KiB time=00:00:02.86 bitrate=5132.9kbits/s speed=0.0842x elapsed=0:00:33.96    \nframe=  147 fps=4.3 q=33.0 size=    1792KiB time=00:00:02.92 bitrate=5027.4kbits/s speed=0.0845x elapsed=0:00:34.55    \nframe=  150 fps=4.3 q=33.0 size=    1792KiB time=00:00:02.98 bitrate=4926.2kbits/s speed=0.0846x elapsed=0:00:35.22    \nframe=  150 fps=4.2 q=33.0 size=    1792KiB time=00:00:03.00 bitrate=4893.4kbits/s speed=0.0836x elapsed=0:00:35.88    \nframe=  153 fps=4.2 q=31.0 size=    1792KiB time=00:00:03.06 bitrate=4797.4kbits/s speed=0.0837x elapsed=0:00:36.54    \nframe=  156 fps=4.2 q=32.0 size=    1792KiB time=00:00:03.12 bitrate=4705.1kbits/s speed=0.0839x elapsed=0:00:37.17    \nframe=  158 fps=4.2 q=33.0 size=    1792KiB time=00:00:03.16 bitrate=4645.6kbits/s speed=0.0837x elapsed=0:00:37.77    \nframe=  161 fps=4.2 q=33.0 size=    1792KiB time=00:00:03.22 bitrate=4559.0kbits/s speed=0.084x elapsed=0:00:38.33    \nframe=  163 fps=4.2 q=33.0 size=    1792KiB time=00:00:03.26 bitrate=4503.1kbits/s speed=0.0838x elapsed=0:00:38.90    \nframe=  165 fps=4.2 q=31.0 size=    1792KiB time=00:00:03.30 bitrate=4448.5kbits/s speed=0.0835x elapsed=0:00:39.51    \nframe=  168 fps=4.2 q=32.0 size=    1792KiB time=00:00:03.36 bitrate=4369.1kbits/s speed=0.0837x elapsed=0:00:40.13    \nframe=  171 fps=4.2 q=33.0 size=    1792KiB time=00:00:03.42 bitrate=4292.4kbits/s speed=0.0841x elapsed=0:00:40.68    \nframe=  172 fps=4.2 q=33.0 size=    1792KiB time=00:00:03.44 bitrate=4267.5kbits/s speed=0.0834x elapsed=0:00:41.26    \nframe=  175 fps=4.2 q=32.0 size=    1792KiB time=00:00:03.50 bitrate=4194.3kbits/s speed=0.0836x elapsed=0:00:41.85    \nframe=  179 fps=4.2 q=33.0 size=    1792KiB time=00:00:03.58 bitrate=4100.6kbits/s speed=0.0844x elapsed=0:00:42.40    \nframe=  181 fps=4.2 q=34.0 size=    1792KiB time=00:00:03.62 bitrate=4055.3kbits/s speed=0.0841x elapsed=0:00:43.04    \nframe=  183 fps=4.2 q=34.0 size=    1792KiB time=00:00:03.66 bitrate=4010.9kbits/s speed=0.0838x elapsed=0:00:43.69    \nframe=  186 fps=4.2 q=33.0 size=    1792KiB time=00:00:03.72 bitrate=3946.3kbits/s speed=0.084x elapsed=0:00:44.28    \nframe=  189 fps=4.2 q=33.0 size=    1792KiB time=00:00:03.76 bitrate=3904.3kbits/s speed=0.0837x elapsed=0:00:44.93    \nframe=  191 fps=4.2 q=34.0 size=    1792KiB time=00:00:03.82 bitrate=3842.9kbits/s speed=0.0836x elapsed=0:00:45.71    \nframe=  193 fps=4.2 q=34.0 size=    1792KiB time=00:00:03.86 bitrate=3803.1kbits/s speed=0.0831x elapsed=0:00:46.44    \nframe=  194 fps=4.1 q=34.0 size=    1792KiB time=00:00:03.88 bitrate=3783.5kbits/s speed=0.0824x elapsed=0:00:47.05    \nframe=  196 fps=4.1 q=35.0 size=    1792KiB time=00:00:03.92 bitrate=3744.9kbits/s speed=0.0822x elapsed=0:00:47.71    \nframe=  198 fps=4.1 q=33.0 size=    1792KiB time=00:00:03.96 bitrate=3707.1kbits/s speed=0.0819x elapsed=0:00:48.38    \nframe=  200 fps=4.1 q=34.0 size=    1792KiB time=00:00:04.00 bitrate=3670.0kbits/s speed=0.0816x elapsed=0:00:49.02    \nframe=  203 fps=4.1 q=38.0 size=    1792KiB time=00:00:04.04 bitrate=3633.7kbits/s speed=0.0812x elapsed=0:00:49.76    \nframe=  205 fps=4.1 q=40.0 size=    1792KiB time=00:00:04.10 bitrate=3580.5kbits/s speed=0.0811x elapsed=0:00:50.53    \nframe=  208 fps=4.1 q=37.0 size=    1792KiB time=00:00:04.14 bitrate=3545.9kbits/s speed=0.0808x elapsed=0:00:51.24    \nframe=  210 fps=4.0 q=37.0 size=    1792KiB time=00:00:04.20 bitrate=3495.3kbits/s speed=0.0809x elapsed=0:00:51.90    \nframe=  213 fps=4.1 q=37.0 size=    1792KiB time=00:00:04.26 bitrate=3446.0kbits/s speed=0.0811x elapsed=0:00:52.49    \nframe=  216 fps=4.1 q=38.0 size=    1792KiB time=00:00:04.30 bitrate=3414.0kbits/s speed=0.081x elapsed=0:00:53.09    \nframe=  218 fps=4.1 q=38.0 size=    1792KiB time=00:00:04.34 bitrate=3382.5kbits/s speed=0.0808x elapsed=0:00:53.70    \nframe=  221 fps=4.1 q=36.0 size=    1792KiB time=00:00:04.42 bitrate=3321.3kbits/s speed=0.0814x elapsed=0:00:54.27    \nframe=  224 fps=4.1 q=37.0 size=    1792KiB time=00:00:04.48 bitrate=3276.8kbits/s speed=0.0817x elapsed=0:00:54.81    \nframe=  226 fps=4.1 q=37.0 size=    1792KiB time=00:00:04.52 bitrate=3247.8kbits/s speed=0.0817x elapsed=0:00:55.35    \nframe=  226 fps=4.0 q=37.0 size=    1792KiB time=00:00:04.52 bitrate=3247.8kbits/s speed=0.0808x elapsed=0:00:55.96    \nframe=  226 fps=4.0 q=37.0 size=    1792KiB time=00:00:04.52 bitrate=3247.8kbits/s speed=0.0799x elapsed=0:00:56.54    \nframe=  226 fps=3.9 q=37.0 size=    1792KiB time=00:00:04.52 bitrate=3247.8kbits/s speed=0.079x elapsed=0:00:57.24    \nframe=  226 fps=3.9 q=37.0 size=    1792KiB time=00:00:04.52 bitrate=3247.8kbits/s speed=0.0782x elapsed=0:00:57.78    \nframe=  226 fps=3.9 q=37.0 size=    1792KiB time=00:00:04.52 bitrate=3247.8kbits/s speed=0.0774x elapsed=0:00:58.37    \nframe=  226 fps=3.8 q=37.0 size=    1792KiB time=00:00:04.52 bitrate=3247.8kbits/s speed=0.0767x elapsed=0:00:58.90    \nframe=  226 fps=3.8 q=37.0 size=    1792KiB time=00:00:04.52 bitrate=3247.8kbits/s speed=0.076x elapsed=0:00:59.50    \nframe=  226 fps=3.8 q=37.0 size=    1792KiB time=00:00:04.52 bitrate=3247.8kbits/s speed=0.0753x elapsed=0:01:00.06    \n[out#0/webm @ 0000021a3c40f040] video:3667KiB audio:0KiB subtitle:0KiB other streams:0KiB global headers:0KiB muxing overhead: 0.065784%\nframe=  250 fps=4.1 q=39.0 Lsize=    3669KiB time=00:00:05.00 bitrate=6011.5kbits/s speed=0.0826x elapsed=0:01:00.53    \n",
  "seconds": 61.06511378288269,
  "probe_out": {}
}